HighlandSans-Italic.ufo
<glyph name="dollar" format="1">
  <advance width="1228"/>
  <unicode hex="0024"/>
  <outline>
    <contour>
      <point x="720" y="1312"/>
      <point x="695" y="1293"/>
      <point x="687" y="1247" type="curve" smooth="yes"/>
      <point x="658.666" y="1085.99" type="line"/>
      <point x="385.608" y="1084.46"/>
      <point x="254" y="938.16"/>
      <point x="254" y="779" type="curve" smooth="yes"/>
      <point x="254" y="669"/>
      <point x="319" y="605"/>
      <point x="410" y="577" type="curve" smooth="yes"/>
      <point x="460.531" y="561.515"/>
      <point x="512.225" y="553.834"/>
      <point x="564.065" y="548.41" type="curve"/>
      <point x="515.193" y="270.689" type="line"/>
      <point x="423.134" y="283.583"/>
      <point x="338.899" y="312.598"/>
      <point x="268" y="357" type="curve" smooth="yes"/>
      <point x="239" y="375"/>
      <point x="206" y="374"/>
      <point x="176" y="319" type="curve" smooth="yes"/>
      <point x="149" y="270"/>
      <point x="161" y="239"/>
      <point x="195" y="218" type="curve" smooth="yes"/>
      <point x="279.703" y="165.705"/>
      <point x="378.512" y="136.195"/>
      <point x="489.428" y="124.276" type="curve"/>
      <point x="457" y="-60" type="line" smooth="yes"/>
      <point x="449" y="-106"/>
      <point x="466" y="-125"/>
      <point x="515" y="-125" type="curve" smooth="yes"/>
      <point x="564" y="-125"/>
      <point x="589" y="-106"/>
      <point x="597" y="-60" type="curve" smooth="yes"/>
      <point x="628.346" y="118.129" type="line"/>
      <point x="964.764" y="123.823"/>
      <point x="1056" y="317"/>
      <point x="1056" y="440" type="curve" smooth="yes"/>
      <point x="1056" y="557"/>
      <point x="988" y="622"/>
      <point x="895" y="650" type="curve" smooth="yes"/>
      <point x="840.641" y="666.308"/>
      <point x="784.025" y="673.792"/>
      <point x="727.104" y="679.331" type="curve"/>
      <point x="771.639" y="932.404" type="line"/>
      <point x="851.47" y="920.425"/>
      <point x="926.798" y="895.829"/>
      <point x="993" y="858" type="curve" smooth="yes"/>
      <point x="1023" y="841"/>
      <point x="1058" y="847"/>
      <point x="1084" y="899" type="curve" smooth="yes"/>
      <point x="1109" y="949"/>
      <point x="1097" y="980"/>
      <point x="1062" y="999" type="curve" smooth="yes"/>
      <point x="984.261" y="1040.97"/>
      <point x="893.742" y="1066.37"/>
      <point x="797.283" y="1078.13" type="curve"/>
      <point x="827" y="1247" type="line" smooth="yes"/>
      <point x="835" y="1293"/>
      <point x="818" y="1312"/>
      <point x="769" y="1312" type="curve" smooth="yes"/>
    </contour>
    <contour>
      <point x="808" y="524"/>
      <point x="896" y="508"/>
      <point x="896" y="423" type="curve" smooth="yes"/>
      <point x="896" y="366.482"/>
      <point x="844.612" y="271.423"/>
      <point x="653.933" y="263.526" type="curve"/>
      <point x="701.778" y="535.413" type="line"/>
    </contour>
    <contour>
      <point x="589.438" y="692.591" type="line"/>
      <point x="500" y="703"/>
      <point x="414" y="718"/>
      <point x="414" y="795" type="curve" smooth="yes"/>
      <point x="414" y="864.84"/>
      <point x="482.648" y="934.681"/>
      <point x="633.08" y="940.595" type="curve"/>
    </contour>
  </outline>
</glyph>
<glyph name="ampersand" format="1">
  <advance width="1228"/>
  <unicode hex="0026"/>
  <outline>
    <contour>
      <point x="484" y="1209"/>
      <point x="346" y="1020"/>
      <point x="346" y="843" type="curve" smooth="yes"/>
      <point x="346" y="757"/>
      <point x="380" y="682"/>
      <point x="422" y="624" type="curve" smooth="yes"/>
      <point x="872" y="11" type="line" smooth="yes"/>
      <point x="892" y="-16"/>
      <point x="919" y="-24"/>
      <point x="971" y="5" type="curve" smooth="yes"/>
      <point x="1020" y="32"/>
      <point x="1030" y="58"/>
      <point x="1005" y="92" type="curve" smooth="yes"/>
      <point x="555" y="702" type="line" smooth="yes"/>
      <point x="520" y="749"/>
      <point x="502" y="796"/>
      <point x="502" y="850" type="curve" smooth="yes"/>
      <point x="502" y="974"/>
      <point x="597" y="1061"/>
      <point x="714" y="1061" type="curve" smooth="yes"/>
      <point x="793" y="1061"/>
      <point x="867" y="1041"/>
      <point x="937" y="996" type="curve" smooth="yes"/>
      <point x="965" y="978"/>
      <point x="991" y="981"/>
      <point x="1022" y="1028" type="curve" smooth="yes"/>
      <point x="1053" y="1075"/>
      <point x="1051" y="1103"/>
      <point x="1019" y="1124" type="curve" smooth="yes"/>
      <point x="942" y="1176"/>
      <point x="842" y="1209"/>
      <point x="731" y="1209" type="curve" smooth="yes"/>
    </contour>
    <contour>
      <point x="297" y="592"/>
      <point x="150" y="460"/>
      <point x="150" y="258" type="curve" smooth="yes"/>
      <point x="150" y="105"/>
      <point x="251" y="-22"/>
      <point x="442" y="-22" type="curve" smooth="yes"/>
      <point x="719" y="-22"/>
      <point x="915" y="226"/>
      <point x="1061" y="561" type="curve" smooth="yes"/>
      <point x="1081" y="607"/>
      <point x="1072" y="630"/>
      <point x="1015" y="644" type="curve" smooth="yes"/>
      <point x="962" y="657"/>
      <point x="938" y="645"/>
      <point x="917" y="600" type="curve" smooth="yes"/>
      <point x="806" y="356"/>
      <point x="656" y="126"/>
      <point x="458" y="126" type="curve" smooth="yes"/>
      <point x="363" y="126"/>
      <point x="304" y="187"/>
      <point x="304" y="274" type="curve" smooth="yes"/>
      <point x="304" y="427"/>
      <point x="441" y="516"/>
      <point x="563" y="575" type="curve"/>
      <point x="485" y="685" type="line"/>
    </contour>
  </outline>
</glyph>
<glyph name="asterisk" format="1">
  <advance width="1228"/>
  <unicode hex="002A"/>
  <outline>
    <contour>
      <point x="816" y="1209"/>
      <point x="843" y="1174"/>
      <point x="827" y="1119" type="curve" smooth="yes"/>
      <point x="702" y="709" type="line"/>
      <point x="636" y="709" type="line"/>
      <point x="652" y="1119" type="line" smooth="yes"/>
      <point x="654" y="1174"/>
      <point x="692" y="1209"/>
      <point x="754" y="1209" type="curve" smooth="yes"/>
    </contour>
    <contour>
      <point x="1122" y="838"/>
      <point x="1093" y="797"/>
      <point x="1037" y="787" type="curve" smooth="yes"/>
      <point x="622" y="717" type="line"/>
      <point x="613" y="780" type="line"/>
      <point x="1004" y="955" type="line" smooth="yes"/>
      <point x="1058" y="979"/>
      <point x="1105" y="956"/>
      <point x="1113" y="897" type="curve" smooth="yes"/>
    </contour>
    <contour>
      <point x="820" y="376"/>
      <point x="781" y="399"/>
      <point x="762" y="446" type="curve" smooth="yes"/>
      <point x="622" y="798" type="line"/>
      <point x="683" y="838" type="line"/>
      <point x="908" y="527" type="line" smooth="yes"/>
      <point x="938" y="486"/>
      <point x="935" y="445"/>
      <point x="878" y="411" type="curve" smooth="yes"/>
    </contour>
    <contour>
      <point x="317" y="456"/>
      <point x="315" y="508"/>
      <point x="360" y="547" type="curve" smooth="yes"/>
      <point x="699" y="842" type="line"/>
      <point x="751" y="800" type="line"/>
      <point x="492" y="441" type="line" smooth="yes"/>
      <point x="458" y="393"/>
      <point x="405" y="383"/>
      <point x="361" y="419" type="curve" smooth="yes"/>
    </contour>
    <contour>
      <point x="317" y="974"/>
      <point x="357" y="987"/>
      <point x="403" y="964" type="curve" smooth="yes"/>
      <point x="751" y="787" type="line"/>
      <point x="718" y="724" type="line"/>
      <point x="330" y="804" type="line" smooth="yes"/>
      <point x="278" y="815"/>
      <point x="262" y="853"/>
      <point x="289" y="913" type="curve" smooth="yes"/>
    </contour>
  </outline>
</glyph>
<glyph name="six" format="1">
  <advance width="1228"/>
  <unicode hex="0036"/>
  <outline>
    <contour>
      <point x="805" y="583"/>
      <point x="881" y="512"/>
      <point x="881" y="401" type="curve" smooth="yes"/>
      <point x="881" y="288"/>
      <point x="799" y="126"/>
      <point x="582" y="126" type="curve" smooth="yes"/>
      <point x="446" y="126"/>
      <point x="367" y="204"/>
      <point x="367" y="319" type="curve" smooth="yes"/>
      <point x="367" y="486"/>
      <point x="514" y="583"/>
      <point x="667" y="583" type="curve" smooth="yes"/>
    </contour>
    <contour>
      <point x="1089" y="1063"/>
      <point x="1110" y="1083"/>
      <point x="1110" y="1142" type="curve" smooth="yes"/>
      <point x="1110" y="1197"/>
      <point x="1087" y="1210"/>
      <point x="1057" y="1209" type="curve" smooth="yes"/>
      <point x="465" y="1182"/>
      <point x="215" y="757"/>
      <point x="215" y="372" type="curve" smooth="yes"/>
      <point x="215" y="295"/>
      <point x="226" y="229"/>
      <point x="248" y="176" type="curve" smooth="yes"/>
      <point x="301" y="46"/>
      <point x="424" y="-22"/>
      <point x="566" y="-22" type="curve" smooth="yes"/>
      <point x="872" y="-22"/>
      <point x="1035" y="202"/>
      <point x="1035" y="417" type="curve" smooth="yes"/>
      <point x="1035" y="604"/>
      <point x="901" y="731"/>
      <point x="705" y="731" type="curve" smooth="yes"/>
      <point x="591" y="731"/>
      <point x="483" y="685"/>
      <point x="397" y="600" type="curve"/>
      <point x="480" y="859"/>
      <point x="691" y="1043"/>
      <point x="1062" y="1062" type="curve"/>
    </contour>
  </outline>
</glyph>
<glyph name="equal" format="1">
  <advance width="1228"/>
  <unicode hex="003D"/>
  <outline>
    <contour>
      <point x="1050" y="710" type="line" smooth="yes"/>
      <point x="1095" y="710"/>
      <point x="1116" y="730"/>
      <point x="1125" y="782" type="curve" smooth="yes"/>
      <point x="1135" y="834"/>
      <point x="1120" y="854"/>
      <point x="1075" y="854" type="curve" smooth="yes"/>
      <point x="313" y="854" type="line" smooth="yes"/>
      <point x="268" y="854"/>
      <point x="247" y="834"/>
      <point x="237" y="782" type="curve" smooth="yes"/>
      <point x="228" y="730"/>
      <point x="243" y="710"/>
      <point x="288" y="710" type="curve" smooth="yes"/>
    </contour>
    <contour>
      <point x="979" y="310" type="line" smooth="yes"/>
      <point x="1024" y="310"/>
      <point x="1046" y="330"/>
      <point x="1055" y="382" type="curve" smooth="yes"/>
      <point x="1064" y="434"/>
      <point x="1050" y="454"/>
      <point x="1005" y="454" type="curve" smooth="yes"/>
      <point x="243" y="454" type="line" smooth="yes"/>
      <point x="198" y="454"/>
      <point x="176" y="434"/>
      <point x="167" y="382" type="curve" smooth="yes"/>
      <point x="158" y="330"/>
      <point x="172" y="310"/>
      <point x="217" y="310" type="curve" smooth="yes"/>
    </contour>
  </outline>
</glyph>
<glyph name="N" format="1">
  <advance width="1228"/>
  <unicode hex="004E"/>
  <outline>
    <contour>
      <point x="893" y="253" type="line"/>
      <point x="475" y="1169" type="line" smooth="yes"/>
      <point x="467" y="1187"/>
      <point x="447" y="1197"/>
      <point x="418" y="1197" type="curve" smooth="yes"/>
      <point x="391" y="1197" type="line" smooth="yes"/>
      <point x="335" y="1197"/>
      <point x="312" y="1178"/>
      <point x="304" y="1132" type="curve" smooth="yes"/>
      <point x="114" y="55" type="line" smooth="yes"/>
      <point x="106" y="9"/>
      <point x="124" y="-10"/>
      <point x="180" y="-10" type="curve" smooth="yes"/>
      <point x="236" y="-10"/>
      <point x="256" y="9"/>
      <point x="264" y="55" type="curve" smooth="yes"/>
      <point x="424" y="960" type="line"/>
      <point x="405" y="962" type="line"/>
      <point x="829" y="33" type="line" smooth="yes"/>
      <point x="845" y="-1"/>
      <point x="866" y="-22"/>
      <point x="904" y="-22" type="curve" smooth="yes"/>
      <point x="956" y="-22"/>
      <point x="983" y="2"/>
      <point x="989" y="37" type="curve" smooth="yes"/>
      <point x="1182" y="1132" type="line" smooth="yes"/>
      <point x="1190" y="1178"/>
      <point x="1172" y="1197"/>
      <point x="1116" y="1197" type="curve" smooth="yes"/>
      <point x="1060" y="1197"/>
      <point x="1040" y="1178"/>
      <point x="1032" y="1132" type="curve" smooth="yes"/>
      <point x="879" y="264" type="line"/>
    </contour>
  </outline>
</glyph>
<glyph name="g" format="1">
  <advance width="1228"/>
  <unicode hex="0067"/>
  <outline>
    <contour>
      <point x="642" y="28"/>
      <point x="748" y="73"/>
      <point x="845" y="168" type="curve"/>
      <point x="812" y="-22" type="line" smooth="yes"/>
      <point x="786" y="-169"/>
      <point x="683" y="-267"/>
      <point x="505" y="-267" type="curve" smooth="yes"/>
      <point x="408" y="-267"/>
      <point x="303" y="-249"/>
      <point x="216" y="-211" type="curve" smooth="yes"/>
      <point x="184" y="-197"/>
      <point x="155" y="-209"/>
      <point x="134" y="-261" type="curve" smooth="yes"/>
      <point x="113" y="-312"/>
      <point x="127" y="-341"/>
      <point x="161" y="-355" type="curve" smooth="yes"/>
      <point x="259" y="-395"/>
      <point x="374" y="-415"/>
      <point x="489" y="-415" type="curve" smooth="yes"/>
      <point x="751" y="-415"/>
      <point x="915" y="-284"/>
      <point x="957" y="-45" type="curve" smooth="yes"/>
      <point x="1119" y="869" type="line" smooth="yes"/>
      <point x="1127" y="915"/>
      <point x="1116" y="934"/>
      <point x="1060" y="934" type="curve" smooth="yes"/>
      <point x="1004" y="934"/>
      <point x="987" y="915"/>
      <point x="979" y="869" type="curve" smooth="yes"/>
      <point x="960" y="766" type="line"/>
      <point x="900" y="877"/>
      <point x="801" y="946"/>
      <point x="665" y="946" type="curve" smooth="yes"/>
      <point x="338" y="946"/>
      <point x="149" y="685"/>
      <point x="149" y="400" type="curve" smooth="yes"/>
      <point x="149" y="172"/>
      <point x="297" y="28"/>
      <point x="513" y="28" type="curve" smooth="yes"/>
    </contour>
    <contour>
      <point x="385" y="176"/>
      <point x="302" y="271"/>
      <point x="302" y="412" type="curve" smooth="yes"/>
      <point x="302" y="602"/>
      <point x="425" y="798"/>
      <point x="649" y="798" type="curve" smooth="yes"/>
      <point x="804" y="798"/>
      <point x="908" y="710"/>
      <point x="908" y="556" type="curve" smooth="yes"/>
      <point x="908" y="383"/>
      <point x="789" y="176"/>
      <point x="540" y="176" type="curve" smooth="yes"/>
    </contour>
  </outline>
</glyph>
<glyph name="p" format="1">
  <advance width="1228"/>
  <unicode hex="0070"/>
  <outline>
    <contour>
      <point x="307" y="200" type="line"/>
      <point x="292" y="156" type="line"/>
      <point x="354" y="44"/>
      <point x="458" y="-22"/>
      <point x="595" y="-22" type="curve" smooth="yes"/>
      <point x="948" y="-22"/>
      <point x="1107" y="299"/>
      <point x="1107" y="558" type="curve" smooth="yes"/>
      <point x="1107" y="797"/>
      <point x="960" y="946"/>
      <point x="745" y="946" type="curve" smooth="yes"/>
      <point x="617" y="946"/>
      <point x="501" y="893"/>
      <point x="401" y="790" type="curve"/>
      <point x="415" y="869" type="line" smooth="yes"/>
      <point x="423" y="915"/>
      <point x="407" y="934"/>
      <point x="354" y="934" type="curve" smooth="yes"/>
      <point x="301" y="934"/>
      <point x="283" y="915"/>
      <point x="275" y="869" type="curve" smooth="yes"/>
      <point x="62" y="-338" type="line" smooth="yes"/>
      <point x="54" y="-384"/>
      <point x="71" y="-403"/>
      <point x="127" y="-403" type="curve" smooth="yes"/>
      <point x="183" y="-403"/>
      <point x="204" y="-384"/>
      <point x="212" y="-338" type="curve" smooth="yes"/>
    </contour>
    <contour>
      <point x="872" y="798"/>
      <point x="954" y="698"/>
      <point x="954" y="549" type="curve" smooth="yes"/>
      <point x="954" y="343"/>
      <point x="826" y="126"/>
      <point x="601" y="126" type="curve" smooth="yes"/>
      <point x="447" y="126"/>
      <point x="346" y="219"/>
      <point x="346" y="383" type="curve" smooth="yes"/>
      <point x="346" y="589"/>
      <point x="482" y="798"/>
      <point x="719" y="798" type="curve" smooth="yes"/>
    </contour>
  </outline>
</glyph>
<glyph name="q" format="1">
  <advance width="1228"/>
  <unicode hex="0071"/>
  <outline>
    <contour>
      <point x="302" y="946"/>
      <point x="143" y="625"/>
      <point x="143" y="366" type="curve" smooth="yes"/>
      <point x="143" y="127"/>
      <point x="290" y="-22"/>
      <point x="505" y="-22" type="curve" smooth="yes"/>
      <point x="633" y="-22"/>
      <point x="745" y="31"/>
      <point x="837" y="122" type="curve"/>
      <point x="756" y="-338" type="line" smooth="yes"/>
      <point x="748" y="-384"/>
      <point x="763" y="-403"/>
      <point x="819" y="-403" type="curve" smooth="yes"/>
      <point x="821" y="-403" type="line" smooth="yes"/>
      <point x="874" y="-403"/>
      <point x="898" y="-384"/>
      <point x="906" y="-338" type="curve" smooth="yes"/>
      <point x="1119" y="869" type="line" smooth="yes"/>
      <point x="1127" y="915"/>
      <point x="1112" y="934"/>
      <point x="1059" y="934" type="curve" smooth="yes"/>
      <point x="1057" y="934" type="line" smooth="yes"/>
      <point x="1004" y="934"/>
      <point x="987" y="915"/>
      <point x="979" y="869" type="curve" smooth="yes"/>
      <point x="960" y="766" type="line"/>
      <point x="896" y="880"/>
      <point x="792" y="946"/>
      <point x="655" y="946" type="curve" smooth="yes"/>
    </contour>
    <contour>
      <point x="803" y="798"/>
      <point x="904" y="705"/>
      <point x="904" y="541" type="curve" smooth="yes"/>
      <point x="904" y="335"/>
      <point x="768" y="126"/>
      <point x="531" y="126" type="curve" smooth="yes"/>
      <point x="378" y="126"/>
      <point x="296" y="226"/>
      <point x="296" y="375" type="curve" smooth="yes"/>
      <point x="296" y="581"/>
      <point x="424" y="798"/>
      <point x="649" y="798" type="curve" smooth="yes"/>
    </contour>
  </outline>
</glyph>
<glyph name="u" format="1">
  <advance width="1228"/>
  <unicode hex="0075"/>
  <outline>
    <contour>
      <point x="363" y="126"/>
      <point x="315" y="180"/>
      <point x="315" y="265" type="curve" smooth="yes"/>
      <point x="315" y="282"/>
      <point x="317" y="300"/>
      <point x="320" y="319" type="curve" smooth="yes"/>
      <point x="417" y="869" type="line" smooth="yes"/>
      <point x="425" y="915"/>
      <point x="407" y="934"/>
      <point x="351" y="934" type="curve" smooth="yes"/>
      <point x="295" y="934"/>
      <point x="275" y="915"/>
      <point x="267" y="869" type="curve" smooth="yes"/>
      <point x="169" y="314" type="line" smooth="yes"/>
      <point x="164" y="287"/>
      <point x="162" y="262"/>
      <point x="162" y="238" type="curve" smooth="yes"/>
      <point x="162" y="80"/>
      <point x="265" y="-22"/>
      <point x="437" y="-22" type="curve" smooth="yes"/>
      <point x="583" y="-22"/>
      <point x="743" y="74"/>
      <point x="852" y="208" type="curve"/>
      <point x="825" y="55" type="line" smooth="yes"/>
      <point x="817" y="9"/>
      <point x="833" y="-10"/>
      <point x="886" y="-10" type="curve" smooth="yes"/>
      <point x="939" y="-10"/>
      <point x="957" y="9"/>
      <point x="965" y="55" type="curve" smooth="yes"/>
      <point x="1109" y="869" type="line" smooth="yes"/>
      <point x="1117" y="915"/>
      <point x="1099" y="934"/>
      <point x="1043" y="934" type="curve" smooth="yes"/>
      <point x="987" y="934"/>
      <point x="967" y="915"/>
      <point x="959" y="869" type="curve" smooth="yes"/>
      <point x="899" y="532" type="line" smooth="yes"/>
      <point x="859" y="304"/>
      <point x="639" y="126"/>
      <point x="468" y="126" type="curve" smooth="yes"/>
    </contour>
  </outline>
</glyph>
<glyph name="y" format="1">
  <advance width="1228"/>
  <unicode hex="0079"/>
  <outline>
    <contour>
      <point x="472" y="27" type="line"/>
      <point x="572" y="65" type="line"/>
      <point x="576" y="202" type="line"/>
      <point x="353" y="890" type="line" smooth="yes"/>
      <point x="339" y="933"/>
      <point x="317" y="938"/>
      <point x="263" y="924" type="curve" smooth="yes"/>
      <point x="206" y="909"/>
      <point x="192" y="883"/>
      <point x="206" y="840" type="curve" smooth="yes"/>
    </contour>
    <contour>
      <point x="496" y="97" type="line"/>
      <point x="227" y="-296" type="line" smooth="yes"/>
      <point x="198" y="-339"/>
      <point x="206" y="-367"/>
      <point x="252" y="-393" type="curve" smooth="yes"/>
      <point x="297" y="-419"/>
      <point x="327" y="-412"/>
      <point x="356" y="-369" type="curve" smooth="yes"/>
      <point x="1168" y="830" type="line" smooth="yes"/>
      <point x="1197" y="873"/>
      <point x="1185" y="901"/>
      <point x="1136" y="924" type="curve" smooth="yes"/>
      <point x="1088" y="946"/>
      <point x="1064" y="941"/>
      <point x="1035" y="898" type="curve" smooth="yes"/>
    </contour>
  </outline>
</glyph>
<glyph name="yen" format="1">
  <advance width="1228"/>
  <unicode hex="00A5"/>
  <outline>
    <contour>
      <point x="976" y="290" type="line"/>
      <point x="1021" y="290"/>
      <point x="1042" y="310"/>
      <point x="1051" y="362" type="curve" smooth="yes"/>
      <point x="1060" y="414"/>
      <point x="1046" y="434"/>
      <point x="1001" y="434" type="curve" smooth="yes"/>
      <point x="239" y="434" type="line" smooth="yes"/>
      <point x="194" y="434"/>
      <point x="172" y="414"/>
      <point x="163" y="362" type="curve" smooth="yes"/>
      <point x="154" y="310"/>
      <point x="169" y="290"/>
      <point x="214" y="290" type="curve" smooth="yes"/>
    </contour>
    <contour>
      <point x="748" y="600" type="line"/>
      <point x="1050" y="600" type="line" smooth="yes"/>
      <point x="1095" y="600"/>
      <point x="1117" y="620"/>
      <point x="1126" y="672" type="curve" smooth="yes"/>
      <point x="1135" y="724"/>
      <point x="1121" y="744"/>
      <point x="1076" y="744" type="curve" smooth="yes"/>
      <point x="868" y="744" type="line"/>
    </contour>
    <contour>
      <point x="471" y="744" type="line"/>
      <point x="274" y="744" type="line" smooth="yes"/>
      <point x="229" y="744"/>
      <point x="207" y="724"/>
      <point x="198" y="672" type="curve" smooth="yes"/>
      <point x="189" y="620"/>
      <point x="203" y="600"/>
      <point x="248" y="600" type="curve" smooth="yes"/>
      <point x="539" y="600" type="line"/>
    </contour>
    <component base="Y" xOffset="-4"/>
  </outline>
</glyph>
<glyph name="ordfeminine" format="1">
  <advance width="1228"/>
  <unicode hex="00AA"/>
  <outline>
    <contour>
      <point x="496" y="597"/>
      <point x="432" y="660"/>
      <point x="432" y="770" type="curve" smooth="yes"/>
      <point x="432" y="929"/>
      <point x="532" y="1077"/>
      <point x="685" y="1077" type="curve" smooth="yes"/>
      <point x="800" y="1077"/>
      <point x="867" y="1020"/>
      <point x="867" y="898" type="curve" smooth="yes"/>
      <point x="867" y="739"/>
      <point x="781" y="597"/>
      <point x="599" y="597" type="curve" smooth="yes"/>
    </contour>
    <contour>
      <point x="826" y="607" type="line"/>
      <point x="812" y="524" type="line" smooth="yes"/>
      <point x="806" y="489"/>
      <point x="815" y="474"/>
      <point x="868" y="474" type="curve" smooth="yes"/>
      <point x="921" y="474"/>
      <point x="934" y="489"/>
      <point x="940" y="524" type="curve" smooth="yes"/>
      <point x="1051" y="1150" type="line" smooth="yes"/>
      <point x="1057" y="1185"/>
      <point x="1048" y="1200"/>
      <point x="995" y="1200" type="curve" smooth="yes"/>
      <point x="942" y="1200"/>
      <point x="930" y="1185"/>
      <point x="923" y="1150" type="curve" smooth="yes"/>
      <point x="910" y="1083" type="line"/>
      <point x="873" y="1158"/>
      <point x="801" y="1209"/>
      <point x="694" y="1209" type="curve" smooth="yes"/>
      <point x="423" y="1209"/>
      <point x="289" y="962"/>
      <point x="289" y="763" type="curve" smooth="yes"/>
      <point x="289" y="580"/>
      <point x="413" y="465"/>
      <point x="579" y="465" type="curve" smooth="yes"/>
      <point x="677" y="465"/>
      <point x="766" y="508"/>
      <point x="844" y="592" type="curve"/>
    </contour>
  </outline>
</glyph>
<glyph name="paragraph" format="1">
  <advance width="1228"/>
  <unicode hex="00B6"/>
  <outline>
    <contour>
      <point x="677" y="1187" type="line" smooth="yes"/>
      <point x="360" y="1187"/>
      <point x="205" y="997"/>
      <point x="205" y="789" type="curve" smooth="yes"/>
      <point x="205" y="617"/>
      <point x="337" y="508"/>
      <point x="544" y="502" type="curve"/>
      <point x="394" y="-350" type="line" smooth="yes"/>
      <point x="386" y="-396"/>
      <point x="401" y="-415"/>
      <point x="457" y="-415" type="curve" smooth="yes"/>
      <point x="513" y="-415"/>
      <point x="536" y="-396"/>
      <point x="544" y="-350" type="curve" smooth="yes"/>
      <point x="789" y="1043" type="line"/>
      <point x="949" y="1043" type="line"/>
      <point x="704" y="-350" type="line" smooth="yes"/>
      <point x="696" y="-396"/>
      <point x="711" y="-415"/>
      <point x="767" y="-415" type="curve" smooth="yes"/>
      <point x="823" y="-415"/>
      <point x="846" y="-396"/>
      <point x="854" y="-350" type="curve" smooth="yes"/>
      <point x="1099" y="1043" type="line"/>
      <point x="1167" y="1043" type="line" smooth="yes"/>
      <point x="1212" y="1043"/>
      <point x="1234" y="1063"/>
      <point x="1243" y="1115" type="curve" smooth="yes"/>
      <point x="1252" y="1167"/>
      <point x="1238" y="1187"/>
      <point x="1193" y="1187" type="curve" smooth="yes"/>
    </contour>
  </outline>
</glyph>
<glyph name="divide" format="1">
  <advance width="1228"/>
  <unicode hex="00F7"/>
  <outline>
    <contour>
      <point x="750" y="806"/>
      <point x="817" y="867"/>
      <point x="817" y="943" type="curve" smooth="yes"/>
      <point x="817" y="1000"/>
      <point x="775" y="1045"/>
      <point x="715" y="1045" type="curve" smooth="yes"/>
      <point x="644" y="1045"/>
      <point x="575" y="985"/>
      <point x="575" y="909" type="curve" smooth="yes"/>
      <point x="575" y="852"/>
      <point x="618" y="806"/>
      <point x="679" y="806" type="curve" smooth="yes"/>
    </contour>
    <contour>
      <point x="650" y="120"/>
      <point x="717" y="181"/>
      <point x="717" y="257" type="curve" smooth="yes"/>
      <point x="717" y="314"/>
      <point x="675" y="359"/>
      <point x="615" y="359" type="curve" smooth="yes"/>
      <point x="544" y="359"/>
      <point x="475" y="299"/>
      <point x="475" y="223" type="curve" smooth="yes"/>
      <point x="475" y="166"/>
      <point x="518" y="120"/>
      <point x="579" y="120" type="curve" smooth="yes"/>
    </contour>
    <contour>
      <point x="1014" y="510" type="line" smooth="yes"/>
      <point x="1059" y="510"/>
      <point x="1081" y="530"/>
      <point x="1090" y="582" type="curve" smooth="yes"/>
      <point x="1099" y="634"/>
      <point x="1085" y="654"/>
      <point x="1040" y="654" type="curve" smooth="yes"/>
      <point x="278" y="654" type="line" smooth="yes"/>
      <point x="233" y="654"/>
      <point x="211" y="634"/>
      <point x="202" y="582" type="curve" smooth="yes"/>
      <point x="193" y="530"/>
      <point x="207" y="510"/>
      <point x="252" y="510" type="curve" smooth="yes"/>
    </contour>
  </outline>
</glyph>
<glyph name="thorn" format="1">
  <advance width="1228"/>
  <unicode hex="00FE"/>
  <outline>
    <contour>
      <point x="428" y="1322" type="line" smooth="yes"/>
      <point x="375" y="1322"/>
      <point x="351" y="1303"/>
      <point x="343" y="1257" type="curve" smooth="yes"/>
      <point x="62" y="-338" type="line" smooth="yes"/>
      <point x="54" y="-384"/>
      <point x="69" y="-403"/>
      <point x="125" y="-403" type="curve" smooth="yes"/>
      <point x="127" y="-403" type="line" smooth="yes"/>
      <point x="180" y="-403"/>
      <point x="204" y="-384"/>
      <point x="212" y="-338" type="curve" smooth="yes"/>
      <point x="307" y="200" type="line"/>
      <point x="292" y="156" type="line"/>
      <point x="354" y="44"/>
      <point x="458" y="-22"/>
      <point x="595" y="-22" type="curve" smooth="yes"/>
      <point x="948" y="-22"/>
      <point x="1107" y="299"/>
      <point x="1107" y="558" type="curve" smooth="yes"/>
      <point x="1107" y="797"/>
      <point x="960" y="946"/>
      <point x="745" y="946" type="curve" smooth="yes"/>
      <point x="622" y="946"/>
      <point x="509" y="896"/>
      <point x="412" y="801" type="curve"/>
      <point x="493" y="1257" type="line" smooth="yes"/>
      <point x="501" y="1303"/>
      <point x="486" y="1322"/>
      <point x="430" y="1322" type="curve" smooth="yes"/>
    </contour>
    <contour>
      <point x="872" y="798"/>
      <point x="954" y="698"/>
      <point x="954" y="549" type="curve" smooth="yes"/>
      <point x="954" y="343"/>
      <point x="826" y="126"/>
      <point x="601" y="126" type="curve" smooth="yes"/>
      <point x="447" y="126"/>
      <point x="346" y="219"/>
      <point x="346" y="383" type="curve" smooth="yes"/>
      <point x="346" y="589"/>
      <point x="482" y="798"/>
      <point x="719" y="798" type="curve" smooth="yes"/>
    </contour>
  </outline>
</glyph>
<glyph name="dcaron" format="1">
  <advance width="1228"/>
  <unicode hex="010F"/>
  <outline>
    <contour>
      <point x="736" y="117" type="line"/>
      <point x="725" y="55" type="line" smooth="yes"/>
      <point x="717" y="9"/>
      <point x="733" y="-10"/>
      <point x="786" y="-10" type="curve" smooth="yes"/>
      <point x="839" y="-10"/>
      <point x="857" y="9"/>
      <point x="865" y="55" type="curve" smooth="yes"/>
      <point x="1077" y="1257" type="line" smooth="yes"/>
      <point x="1085" y="1303"/>
      <point x="1068" y="1322"/>
      <point x="1012" y="1322" type="curve" smooth="yes"/>
      <point x="956" y="1322"/>
      <point x="935" y="1303"/>
      <point x="927" y="1257" type="curve" smooth="yes"/>
      <point x="839" y="757" type="line"/>
    </contour>
    <contour>
      <point x="850" y="788" type="line"/>
      <point x="805" y="882"/>
      <point x="714" y="946"/>
      <point x="605" y="946" type="curve" smooth="yes"/>
      <point x="280" y="946"/>
      <point x="133" y="625"/>
      <point x="133" y="366" type="curve" smooth="yes"/>
      <point x="133" y="127"/>
      <point x="264" y="-22"/>
      <point x="455" y="-22" type="curve" smooth="yes"/>
      <point x="559" y="-22"/>
      <point x="659" y="27"/>
      <point x="742" y="120" type="curve"/>
      <point x="865" y="439" type="line"/>
    </contour>
    <contour>
      <point x="354" y="126"/>
      <point x="286" y="226"/>
      <point x="286" y="375" type="curve" smooth="yes"/>
      <point x="286" y="581"/>
      <point x="398" y="798"/>
      <point x="599" y="798" type="curve" smooth="yes"/>
      <point x="717" y="798"/>
      <point x="794" y="705"/>
      <point x="794" y="541" type="curve" smooth="yes"/>
      <point x="794" y="335"/>
      <point x="682" y="126"/>
      <point x="481" y="126" type="curve" smooth="yes"/>
    </contour>
    <component base="quoteright" xOffset="749" yOffset="332" xScale="0.81" yScale="0.81"/>
  </outline>
</glyph>
<glyph name="dcroat" format="1">
  <advance width="1228"/>
  <unicode hex="0111"/>
  <outline>
    <contour>
      <point x="1245" y="1026" type="line" smooth="yes"/>
      <point x="1290" y="1026"/>
      <point x="1312" y="1046"/>
      <point x="1321" y="1098" type="curve" smooth="yes"/>
      <point x="1330" y="1150"/>
      <point x="1316" y="1170"/>
      <point x="1271" y="1170" type="curve" smooth="yes"/>
      <point x="709" y="1170" type="line" smooth="yes"/>
      <point x="664" y="1170"/>
      <point x="642" y="1150"/>
      <point x="633" y="1098" type="curve" smooth="yes"/>
      <point x="624" y="1046"/>
      <point x="638" y="1026"/>
      <point x="683" y="1026" type="curve" smooth="yes"/>
    </contour>
    <component base="d"/>
  </outline>
</glyph>
<glyph name="hbar" format="1">
  <advance width="1228"/>
  <unicode hex="0127"/>
  <outline>
    <contour>
      <point x="438" y="1322" type="line" smooth="yes"/>
      <point x="385" y="1322"/>
      <point x="361" y="1303"/>
      <point x="353" y="1257" type="curve" smooth="yes"/>
      <point x="141" y="55" type="line" smooth="yes"/>
      <point x="133" y="9"/>
      <point x="148" y="-10"/>
      <point x="204" y="-10" type="curve" smooth="yes"/>
      <point x="206" y="-10" type="line" smooth="yes"/>
      <point x="259" y="-10"/>
      <point x="283" y="9"/>
      <point x="291" y="55" type="curve" smooth="yes"/>
      <point x="351" y="392" type="line" smooth="yes"/>
      <point x="391" y="620"/>
      <point x="611" y="798"/>
      <point x="782" y="798" type="curve" smooth="yes"/>
      <point x="887" y="798"/>
      <point x="935" y="744"/>
      <point x="935" y="659" type="curve" smooth="yes"/>
      <point x="935" y="642"/>
      <point x="933" y="624"/>
      <point x="930" y="605" type="curve" smooth="yes"/>
      <point x="833" y="55" type="line" smooth="yes"/>
      <point x="825" y="9"/>
      <point x="840" y="-10"/>
      <point x="896" y="-10" type="curve" smooth="yes"/>
      <point x="898" y="-10" type="line" smooth="yes"/>
      <point x="951" y="-10"/>
      <point x="975" y="9"/>
      <point x="983" y="55" type="curve" smooth="yes"/>
      <point x="1081" y="610" type="line" smooth="yes"/>
      <point x="1086" y="637"/>
      <point x="1088" y="662"/>
      <point x="1088" y="686" type="curve" smooth="yes"/>
      <point x="1088" y="844"/>
      <point x="985" y="946"/>
      <point x="813" y="946" type="curve" smooth="yes"/>
      <point x="672" y="946"/>
      <point x="519" y="857"/>
      <point x="410" y="731" type="curve"/>
      <point x="503" y="1257" type="line" smooth="yes"/>
      <point x="511" y="1303"/>
      <point x="496" y="1322"/>
      <point x="440" y="1322" type="curve" smooth="yes"/>
    </contour>
    <contour>
      <point x="216" y="1150" type="line" smooth="yes"/>
      <point x="171" y="1150"/>
      <point x="149" y="1130"/>
      <point x="140" y="1078" type="curve" smooth="yes"/>
      <point x="131" y="1026"/>
      <point x="145" y="1006"/>
      <point x="190" y="1006" type="curve" smooth="yes"/>
      <point x="752" y="1006" type="line" smooth="yes"/>
      <point x="797" y="1006"/>
      <point x="819" y="1026"/>
      <point x="828" y="1078" type="curve" smooth="yes"/>
      <point x="837" y="1130"/>
      <point x="823" y="1150"/>
      <point x="778" y="1150" type="curve" smooth="yes"/>
    </contour>
  </outline>
</glyph>
<glyph name="ij" format="1">
  <advance width="1228"/>
  <unicode hex="0133"/>
  <outline>
    <contour>
      <point x="1004" y="934" type="line" smooth="yes"/>
      <point x="951" y="934"/>
      <point x="927" y="915"/>
      <point x="919" y="869" type="curve" smooth="yes"/>
      <point x="757" y="-49" type="line" smooth="yes"/>
      <point x="731" y="-196"/>
      <point x="675" y="-269"/>
      <point x="541" y="-269" type="curve" smooth="yes"/>
      <point x="466" y="-269"/>
      <point x="382" y="-245"/>
      <point x="306" y="-204" type="curve" smooth="yes"/>
      <point x="277" y="-188"/>
      <point x="246" y="-194"/>
      <point x="222" y="-247" type="curve" smooth="yes"/>
      <point x="199" y="-298"/>
      <point x="211" y="-324"/>
      <point x="243" y="-342" type="curve" smooth="yes"/>
      <point x="326" y="-389"/>
      <point x="427" y="-415"/>
      <point x="525" y="-415" type="curve" smooth="yes"/>
      <point x="757" y="-415"/>
      <point x="865" y="-291"/>
      <point x="905" y="-62" type="curve" smooth="yes"/>
      <point x="1069" y="869" type="line" smooth="yes"/>
      <point x="1077" y="915"/>
      <point x="1062" y="934"/>
      <point x="1006" y="934" type="curve" smooth="yes"/>
    </contour>
    <contour>
      <point x="410" y="934" type="line" smooth="yes"/>
      <point x="357" y="934"/>
      <point x="333" y="915"/>
      <point x="325" y="869" type="curve" smooth="yes"/>
      <point x="181" y="55" type="line" smooth="yes"/>
      <point x="173" y="9"/>
      <point x="188" y="-10"/>
      <point x="244" y="-10" type="curve" smooth="yes"/>
      <point x="246" y="-10" type="line" smooth="yes"/>
      <point x="299" y="-10"/>
      <point x="323" y="9"/>
      <point x="331" y="55" type="curve" smooth="yes"/>
      <point x="475" y="869" type="line" smooth="yes"/>
      <point x="483" y="915"/>
      <point x="468" y="934"/>
      <point x="412" y="934" type="curve" smooth="yes"/>
    </contour>
    <contour>
      <point x="401" y="1363"/>
      <point x="378" y="1344"/>
      <point x="370" y="1298" type="curve" smooth="yes"/>
      <point x="347" y="1168" type="line" smooth="yes"/>
      <point x="339" y="1122"/>
      <point x="355" y="1103"/>
      <point x="431" y="1103" type="curve" smooth="yes"/>
      <point x="507" y="1103"/>
      <point x="529" y="1122"/>
      <point x="537" y="1168" type="curve" smooth="yes"/>
      <point x="560" y="1298" type="line" smooth="yes"/>
      <point x="568" y="1344"/>
      <point x="553" y="1363"/>
      <point x="477" y="1363" type="curve" smooth="yes"/>
    </contour>
    <contour>
      <point x="995" y="1363"/>
      <point x="972" y="1344"/>
      <point x="964" y="1298" type="curve" smooth="yes"/>
      <point x="941" y="1168" type="line" smooth="yes"/>
      <point x="933" y="1122"/>
      <point x="949" y="1103"/>
      <point x="1025" y="1103" type="curve" smooth="yes"/>
      <point x="1101" y="1103"/>
      <point x="1123" y="1122"/>
      <point x="1131" y="1168" type="curve" smooth="yes"/>
      <point x="1154" y="1298" type="line" smooth="yes"/>
      <point x="1162" y="1344"/>
      <point x="1147" y="1363"/>
      <point x="1071" y="1363" type="curve" smooth="yes"/>
    </contour>
  </outline>
</glyph>
<glyph name="Eng" format="1">
  <advance width="1228"/>
  <unicode hex="014A"/>
  <outline>
    <contour>
      <point x="867" y="193" type="line"/>
      <point x="813" y="-112" type="line" smooth="yes"/>
      <point x="793" y="-225"/>
      <point x="739" y="-269"/>
      <point x="657" y="-269" type="curve" smooth="yes"/>
      <point x="597" y="-269"/>
      <point x="536" y="-251"/>
      <point x="487" y="-229" type="curve" smooth="yes"/>
      <point x="460" y="-217"/>
      <point x="426" y="-224"/>
      <point x="404" y="-271" type="curve" smooth="yes"/>
      <point x="380" y="-322"/>
      <point x="389" y="-348"/>
      <point x="424" y="-365" type="curve" smooth="yes"/>
      <point x="487" y="-395"/>
      <point x="566" y="-415"/>
      <point x="646" y="-415" type="curve" smooth="yes"/>
      <point x="822" y="-415"/>
      <point x="926" y="-319"/>
      <point x="958" y="-140" type="curve" smooth="yes"/>
      <point x="1017" y="193" type="line"/>
    </contour>
    <component base="N"/>
  </outline>
</glyph>
<glyph name="eng" format="1">
  <advance width="1228"/>
  <unicode hex="014B"/>
  <outline>
    <contour>
      <point x="858" y="198" type="line"/>
      <point x="804" y="-107" type="line" smooth="yes"/>
      <point x="784" y="-220"/>
      <point x="730" y="-264"/>
      <point x="648" y="-264" type="curve" smooth="yes"/>
      <point x="588" y="-264"/>
      <point x="527" y="-246"/>
      <point x="478" y="-224" type="curve" smooth="yes"/>
      <point x="451" y="-212"/>
      <point x="417" y="-219"/>
      <point x="395" y="-266" type="curve" smooth="yes"/>
      <point x="371" y="-317"/>
      <point x="380" y="-343"/>
      <point x="415" y="-360" type="curve" smooth="yes"/>
      <point x="478" y="-390"/>
      <point x="557" y="-410"/>
      <point x="637" y="-410" type="curve" smooth="yes"/>
      <point x="813" y="-410"/>
      <point x="917" y="-314"/>
      <point x="949" y="-135" type="curve" smooth="yes"/>
      <point x="1008" y="198" type="line"/>
    </contour>
    <component base="n"/>
  </outline>
</glyph>
<glyph name="uogonek" format="1">
  <advance width="1228"/>
  <unicode hex="0173"/>
  <outline>
    <contour>
      <point x="749" y="-336"/>
      <point x="724" y="-316"/>
      <point x="724" y="-277" type="curve" smooth="yes"/>
      <point x="724" y="-205"/>
      <point x="791" y="-115"/>
      <point x="941" y="4" type="curve"/>
      <point x="923" y="38" type="line"/>
      <point x="836" y="48" type="line"/>
      <point x="667" y="-68"/>
      <point x="568" y="-182"/>
      <point x="568" y="-310" type="curve" smooth="yes"/>
      <point x="568" y="-406"/>
      <point x="626" y="-472"/>
      <point x="733" y="-472" type="curve" smooth="yes"/>
      <point x="797" y="-472"/>
      <point x="862" y="-460"/>
      <point x="911" y="-443" type="curve" smooth="yes"/>
      <point x="942" y="-432"/>
      <point x="952" y="-411"/>
      <point x="947" y="-374" type="curve" smooth="yes"/>
      <point x="942" y="-337"/>
      <point x="927" y="-322"/>
      <point x="900" y="-326" type="curve" smooth="yes"/>
      <point x="864" y="-332"/>
      <point x="828" y="-336"/>
      <point x="789" y="-336" type="curve" smooth="yes"/>
    </contour>
    <contour>
      <point x="363" y="126"/>
      <point x="315" y="180"/>
      <point x="315" y="265" type="curve" smooth="yes"/>
      <point x="315" y="282"/>
      <point x="317" y="300"/>
      <point x="320" y="319" type="curve" smooth="yes"/>
      <point x="417" y="869" type="line" smooth="yes"/>
      <point x="425" y="915"/>
      <point x="407" y="934"/>
      <point x="351" y="934" type="curve" smooth="yes"/>
      <point x="295" y="934"/>
      <point x="275" y="915"/>
      <point x="267" y="869" type="curve" smooth="yes"/>
      <point x="169" y="314" type="line" smooth="yes"/>
      <point x="164" y="287"/>
      <point x="162" y="262"/>
      <point x="162" y="238" type="curve" smooth="yes"/>
      <point x="162" y="80"/>
      <point x="265" y="-22"/>
      <point x="437" y="-22" type="curve" smooth="yes"/>
      <point x="583" y="-22"/>
      <point x="743" y="74"/>
      <point x="852" y="208" type="curve"/>
      <point x="816" y="5" type="line"/>
      <point x="886" y="-10" type="line"/>
      <point x="939" y="-10"/>
      <point x="957" y="9"/>
      <point x="965" y="55" type="curve" smooth="yes"/>
      <point x="1109" y="869" type="line" smooth="yes"/>
      <point x="1117" y="915"/>
      <point x="1099" y="934"/>
      <point x="1043" y="934" type="curve" smooth="yes"/>
      <point x="987" y="934"/>
      <point x="967" y="915"/>
      <point x="959" y="869" type="curve" smooth="yes"/>
      <point x="899" y="532" type="line" smooth="yes"/>
      <point x="859" y="304"/>
      <point x="639" y="126"/>
      <point x="468" y="126" type="curve" smooth="yes"/>
    </contour>
  </outline>
</glyph>
<glyph name="fi" format="1">
  <advance width="1228"/>
  <unicode hex="FB01"/>
  <outline>
    <contour>
      <point x="1093" y="856" type="line" smooth="yes"/>
      <point x="1102" y="906"/>
      <point x="1087" y="924"/>
      <point x="1042" y="924" type="curve" smooth="yes"/>
      <point x="442" y="924" type="line"/>
      <point x="417" y="780" type="line"/>
      <point x="930" y="780" type="line"/>
      <point x="802" y="55" type="line" smooth="yes"/>
      <point x="794" y="9"/>
      <point x="810" y="-10"/>
      <point x="866" y="-10" type="curve" smooth="yes"/>
      <point x="922" y="-10"/>
      <point x="944" y="9"/>
      <point x="952" y="55" type="curve" smooth="yes"/>
    </contour>
    <contour>
      <point x="361" y="780" type="line"/>
      <point x="386" y="924" type="line"/>
      <point x="212" y="924" type="line" smooth="yes"/>
      <point x="167" y="924"/>
      <point x="146" y="904"/>
      <point x="137" y="852" type="curve" smooth="yes"/>
      <point x="127" y="800"/>
      <point x="142" y="780"/>
      <point x="187" y="780" type="curve" smooth="yes"/>
    </contour>
    <contour>
      <point x="118" y="-338" type="line" smooth="yes"/>
      <point x="110" y="-384"/>
      <point x="127" y="-403"/>
      <point x="183" y="-403" type="curve" smooth="yes"/>
      <point x="239" y="-403"/>
      <point x="260" y="-384"/>
      <point x="268" y="-338" type="curve" smooth="yes"/>
      <point x="496" y="954" type="line" smooth="yes"/>
      <point x="520" y="1091"/>
      <point x="595" y="1171"/>
      <point x="736" y="1171" type="curve" smooth="yes"/>
      <point x="815" y="1171"/>
      <point x="892" y="1153"/>
      <point x="964" y="1124" type="curve" smooth="yes"/>
      <point x="996" y="1111"/>
      <point x="1027" y="1119"/>
      <point x="1046" y="1174" type="curve" smooth="yes"/>
      <point x="1064" y="1225"/>
      <point x="1042" y="1252"/>
      <point x="1009" y="1266" type="curve" smooth="yes"/>
      <point x="934" y="1297"/>
      <point x="846" y="1317"/>
      <point x="752" y="1317" type="curve" smooth="yes"/>
      <point x="528" y="1317"/>
      <point x="387" y="1186"/>
      <point x="348" y="967" type="curve" smooth="yes"/>
    </contour>
  </outline>
</glyph>
<glyph name="fl" format="1">
  <advance width="1228"/>
  <unicode hex="FB02"/>
  <outline>
    <contour>
      <point x="667" y="700" type="line" smooth="yes"/>
      <point x="712" y="700"/>
      <point x="733" y="720"/>
      <point x="743" y="772" type="curve" smooth="yes"/>
      <point x="752" y="824"/>
      <point x="737" y="844"/>
      <point x="692" y="844" type="curve" smooth="yes"/>
      <point x="198" y="844" type="line" smooth="yes"/>
      <point x="153" y="844"/>
      <point x="132" y="824"/>
      <point x="123" y="772" type="curve" smooth="yes"/>
      <point x="113" y="720"/>
      <point x="128" y="700"/>
      <point x="173" y="700" type="curve" smooth="yes"/>
    </contour>
    <contour>
      <point x="802" y="55" type="line" smooth="yes"/>
      <point x="794" y="9"/>
      <point x="810" y="-10"/>
      <point x="866" y="-10" type="curve" smooth="yes"/>
      <point x="922" y="-10"/>
      <point x="944" y="9"/>
      <point x="952" y="55" type="curve" smooth="yes"/>
      <point x="1162" y="1244" type="line" smooth="yes"/>
      <point x="1171" y="1294"/>
      <point x="1156" y="1312"/>
      <point x="1111" y="1312" type="curve" smooth="yes"/>
      <point x="741" y="1312" type="line" smooth="yes"/>
      <point x="522" y="1312"/>
      <point x="386" y="1185"/>
      <point x="348" y="967" type="curve" smooth="yes"/>
      <point x="118" y="-338" type="line" smooth="yes"/>
      <point x="110" y="-384"/>
      <point x="127" y="-403"/>
      <point x="183" y="-403" type="curve" smooth="yes"/>
      <point x="239" y="-403"/>
      <point x="260" y="-384"/>
      <point x="268" y="-338" type="curve" smooth="yes"/>
      <point x="496" y="958" type="line" smooth="yes"/>
      <point x="519" y="1091"/>
      <point x="593" y="1168"/>
      <point x="734" y="1168" type="curve" smooth="yes"/>
      <point x="998" y="1168" type="line"/>
    </contour>
  </outline>
</glyph>
<glyph name="d.alt" format="1">
  <advance width="1228"/>
  <outline>
    <contour>
      <point x="1112" y="1322" type="line" smooth="yes"/>
      <point x="1059" y="1322"/>
      <point x="1035" y="1303"/>
      <point x="1027" y="1257" type="curve" smooth="yes"/>
      <point x="935" y="733" type="line"/>
      <point x="957" y="750" type="line"/>
      <point x="897" y="873"/>
      <point x="789" y="946"/>
      <point x="645" y="946" type="curve" smooth="yes"/>
      <point x="292" y="946"/>
      <point x="133" y="625"/>
      <point x="133" y="366" type="curve" smooth="yes"/>
      <point x="133" y="127"/>
      <point x="280" y="-22"/>
      <point x="495" y="-22" type="curve" smooth="yes"/>
      <point x="637" y="-22"/>
      <point x="752" y="36"/>
      <point x="850" y="143" type="curve"/>
      <point x="850" y="55"/>
      <point x="901" y="0"/>
      <point x="996" y="0" type="curve" smooth="yes"/>
      <point x="1037" y="0" type="line" smooth="yes"/>
      <point x="1082" y="0"/>
      <point x="1103" y="20"/>
      <point x="1113" y="72" type="curve" smooth="yes"/>
      <point x="1122" y="124"/>
      <point x="1107" y="144"/>
      <point x="1062" y="144" type="curve" smooth="yes"/>
      <point x="1037" y="144" type="line" smooth="yes"/>
      <point x="1000" y="144"/>
      <point x="986" y="168"/>
      <point x="993" y="209" type="curve" smooth="yes"/>
      <point x="1177" y="1257" type="line" smooth="yes"/>
      <point x="1185" y="1304"/>
      <point x="1170" y="1322"/>
      <point x="1114" y="1322" type="curve" smooth="yes"/>
    </contour>
    <contour>
      <point x="793" y="798"/>
      <point x="894" y="705"/>
      <point x="894" y="541" type="curve" smooth="yes"/>
      <point x="894" y="335"/>
      <point x="758" y="126"/>
      <point x="521" y="126" type="curve" smooth="yes"/>
      <point x="368" y="126"/>
      <point x="286" y="226"/>
      <point x="286" y="375" type="curve" smooth="yes"/>
      <point x="286" y="581"/>
      <point x="414" y="798"/>
      <point x="639" y="798" type="curve" smooth="yes"/>
    </contour>
  </outline>
</glyph>
